<svg xmlns="http://www.w3.org/2000/svg" xmlns:xlink="http://www.w3.org/1999/xlink" viewBox="0 0 1172 556" width="1172" height="556" preserveAspectRatio="xMidYMid meet" style="width: 100%;height: 100%;transform: translate3d(0px, 0px, 0px);content-visibility: visible;"><defs><clipPath id="__lottie_element_2"><rect width="1172" height="556" x="0" y="0"></rect></clipPath><g id="__lottie_element_3"><g transform="matrix(1,0,0,1,0,0)" opacity="1" style="display: block;"><path fill="rgb(217,217,217)" fill-opacity="1" d=" M0,0 C0,0 1440,0 1440,0 C1440,0 1440,900 1440,900 C1440,900 0,900 0,900 C0,900 0,0 0,0z"></path></g></g><clipPath id="__lottie_element_7"><path d="M0,0 L1172,0 L1172,556 L0,556z"></path></clipPath><g id="__lottie_element_10"><g style="display: block;" transform="matrix(1,0,0,1,0,0)" opacity="1"><path fill="rgb(246,246,246)" fill-opacity="1" d=" M0,2.390000104904175 C0,1.0700000524520874 1.0700000524520874,0 2.390000104904175,0 C2.390000104904175,0 684.6099853515625,0 684.6099853515625,0 C685.9299926757812,0 687,1.0700000524520874 687,2.390000104904175 C687,2.390000104904175 687,486.1400146484375 687,486.1400146484375 C687,487.4599914550781 685.9299926757812,488.5299987792969 684.6099853515625,488.5299987792969 C684.6099853515625,488.5299987792969 2.390000104904175,488.5299987792969 2.390000104904175,488.5299987792969 C1.0700000524520874,488.5299987792969 0,487.4599914550781 0,486.1400146484375 C0,486.1400146484375 0,2.390000104904175 0,2.390000104904175z"></path></g></g><mask id="__lottie_element_10_1" mask-type="alpha"><use xlink:href="#__lottie_element_10"></use></mask><g id="__lottie_element_16"><g style="display: block;" transform="matrix(1,0,0,1,0,0)" opacity="1"><path fill="rgb(246,246,246)" fill-opacity="1" d=" M0,2.390000104904175 C0,1.0700000524520874 1.0700000524520874,0 2.390000104904175,0 C2.390000104904175,0 684.6099853515625,0 684.6099853515625,0 C685.9299926757812,0 687,1.0700000524520874 687,2.390000104904175 C687,2.390000104904175 687,486.1400146484375 687,486.1400146484375 C687,487.4599914550781 685.9299926757812,488.5299987792969 684.6099853515625,488.5299987792969 C684.6099853515625,488.5299987792969 2.390000104904175,488.5299987792969 2.390000104904175,488.5299987792969 C1.0700000524520874,488.5299987792969 0,487.4599914550781 0,486.1400146484375 C0,486.1400146484375 0,2.390000104904175 0,2.390000104904175z"></path></g></g><mask id="__lottie_element_16_1" mask-type="alpha"><use xlink:href="#__lottie_element_16"></use></mask><g id="__lottie_element_22"><g style="display: block;" transform="matrix(1,0,0,1,0,0)" opacity="1"><path fill="rgb(246,246,246)" fill-opacity="1" d=" M0,2.390000104904175 C0,1.0700000524520874 1.0700000524520874,0 2.390000104904175,0 C2.390000104904175,0 684.6099853515625,0 684.6099853515625,0 C685.9299926757812,0 687,1.0700000524520874 687,2.390000104904175 C687,2.390000104904175 687,486.1400146484375 687,486.1400146484375 C687,487.4599914550781 685.9299926757812,488.5299987792969 684.6099853515625,488.5299987792969 C684.6099853515625,488.5299987792969 2.390000104904175,488.5299987792969 2.390000104904175,488.5299987792969 C1.0700000524520874,488.5299987792969 0,487.4599914550781 0,486.1400146484375 C0,486.1400146484375 0,2.390000104904175 0,2.390000104904175z"></path></g></g><mask id="__lottie_element_22_1" mask-type="alpha"><use xlink:href="#__lottie_element_22"></use></mask><g id="__lottie_element_28"><g style="display: block;" transform="matrix(1,0,0,1,0,0)" opacity="1"><path fill="rgb(246,246,246)" fill-opacity="1" d=" M0,2.390000104904175 C0,1.0700000524520874 1.0700000524520874,0 2.390000104904175,0 C2.390000104904175,0 684.6099853515625,0 684.6099853515625,0 C685.9299926757812,0 687,1.0700000524520874 687,2.390000104904175 C687,2.390000104904175 687,486.1400146484375 687,486.1400146484375 C687,487.4599914550781 685.9299926757812,488.5299987792969 684.6099853515625,488.5299987792969 C684.6099853515625,488.5299987792969 2.390000104904175,488.5299987792969 2.390000104904175,488.5299987792969 C1.0700000524520874,488.5299987792969 0,487.4599914550781 0,486.1400146484375 C0,486.1400146484375 0,2.390000104904175 0,2.390000104904175z"></path></g></g><mask id="__lottie_element_28_1" mask-type="alpha"><use xlink:href="#__lottie_element_28"></use></mask><mask id="__lottie_element_3_1" mask-type="alpha"><use xlink:href="#__lottie_element_3"></use></mask><g id="__lottie_element_34"><g transform="matrix(1,0,0,1,0,0)" opacity="1" style="display: block;"><path fill="rgb(217,217,217)" fill-opacity="1" d=" M0,0 C0,0 1440,0 1440,0 C1440,0 1440,900 1440,900 C1440,900 0,900 0,900 C0,900 0,0 0,0z"></path></g></g><clipPath id="__lottie_element_38"><path d="M0,0 L1172,0 L1172,556 L0,556z"></path></clipPath><clipPath id="__lottie_element_42"><path d="M0,0 L1172,0 L1172,556 L0,556z"></path></clipPath><g id="__lottie_element_57"><g transform="matrix(1,0,0,1,0,0)" opacity="0.29084815789476365" style="display: block;"><path fill="rgb(246,246,246)" fill-opacity="1" d=" M0,2.390000104904175 C0,1.0700000524520874 1.0700000524520874,0 2.390000104904175,0 C2.390000104904175,0 684.6099853515625,0 684.6099853515625,0 C685.9299926757812,0 687,1.0700000524520874 687,2.390000104904175 C687,2.390000104904175 687,486.1400146484375 687,486.1400146484375 C687,487.4599914550781 685.9299926757812,488.5299987792969 684.6099853515625,488.5299987792969 C684.6099853515625,488.5299987792969 2.390000104904175,488.5299987792969 2.390000104904175,488.5299987792969 C1.0700000524520874,488.5299987792969 0,487.4599914550781 0,486.1400146484375 C0,486.1400146484375 0,2.390000104904175 0,2.390000104904175z"></path></g></g><mask id="__lottie_element_34_1" mask-type="alpha"><use xlink:href="#__lottie_element_34"></use></mask></defs><g clip-path="url(#__lottie_element_2)"><g mask="url(#__lottie_element_34_1)" style="display: block;"><g clip-path="url(#__lottie_element_38)" transform="matrix(-1,0,0,-1,882,715)" opacity="0.29084815789476365"><g clip-path="url(#__lottie_element_42)" transform="matrix(1,0,0,1,0,0)" opacity="0.29084815789476365" style="display: block;"><g transform="matrix(0.7601792216300964,0.6497134566307068,-0.6497134566307068,0.7601792216300964,276.8445739746094,123.8768310546875)" opacity="0.29084815789476365" style="display: block;"><path fill="rgb(175,209,235)" fill-opacity="1" d=" M307.9599914550781,23.860000610351562 C329.7799987792969,22.079999923706055 336.30999755859375,62.20000076293945 335.739990234375,95.4800033569336 C334.8900146484375,128.75999450683594 327.2300109863281,155.2100067138672 333.4700012207031,191.1699981689453 C339.7099914550781,227.4199981689453 360.1099853515625,273.19000244140625 351.32000732421875,303.79998779296875 C342.5400085449219,334.4100036621094 304.8399963378906,349.8599853515625 263.75,370.07000732421875 C222.66000366210938,390.2799987792969 178.1699981689453,415.54998779296875 138.49000549316406,409.8999938964844 C98.80999755859375,404.25 63.66999816894531,367.70001220703125 35.33000183105469,327.8800048828125 C6.710000038146973,288.3599853515625 -15.109999656677246,245.55999755859375 13.229999542236328,217.02999877929688 C41.290000915527344,188.1999969482422 120.06999969482422,173.94000244140625 137.63999938964844,128.77000427246094 C155.2100067138672,83.9000015258789 111.8499984741211,8.40999984741211 113.83000183105469,0.6800000071525574 C116.0999984741211,-7.050000190734863 163.42999267578125,52.9900016784668 205.94000244140625,61.310001373291016 C248.4499969482422,69.62999725341797 285.8500061035156,25.639999389648438 307.9599914550781,23.860000610351562 C307.9599914550781,23.860000610351562 307.9599914550781,23.860000610351562 307.9599914550781,23.860000610351562z"></path></g><g transform="matrix(1,0,0,1,332.0899963378906,108.22999572753906)" opacity="0.29084815789476365" style="display: block;"><path fill="rgb(158,210,231)" fill-opacity="1" d=" M316.8699951171875,0.6899999976158142 C357.3399963378906,5.360000133514404 386.54998779296875,36.91999816894531 376.80999755859375,67.80999755859375 C367.07000732421875,98.69999694824219 318.3800048828125,128.92999267578125 309.55999755859375,162.25999450683594 C300.42999267578125,195.60000610351562 331.4700012207031,232.0399932861328 317.4700012207031,235.14999389648438 C303.4700012207031,238.47999572753906 244.44000244140625,208.25999450683594 210.97000122070312,193.82000732421875 C177.1999969482422,179.14999389648438 168.97999572753906,180.25999450683594 166.85000610351562,175.58999633789062 C165.02000427246094,170.6999969482422 168.97999572753906,160.25999450683594 134.2899932861328,158.6999969482422 C99.91000366210938,157.3699951171875 26.889999389648438,164.7100067138672 6.5,157.82000732421875 C-13.890000343322754,150.7100067138672 18.059999465942383,129.3699951171875 42.400001525878906,111.37000274658203 C66.44000244140625,93.37000274658203 82.87000274658203,78.91999816894531 103.55999755859375,67.58999633789062 C124.25,56.2599983215332 148.89999389648438,48.029998779296875 187.24000549316406,32.91999816894531 C225.27000427246094,17.809999465942383 276.70001220703125,-4.199999809265137 316.8699951171875,0.6899999976158142 C316.8699951171875,0.6899999976158142 316.8699951171875,0.6899999976158142 316.8699951171875,0.6899999976158142z"></path></g><g transform="matrix(1,0,0,1,-22.449996948242188,78.50999450683594)" opacity="0.29084815789476365" style="display: block;"><path fill="rgb(244,239,224)" fill-opacity="1" d=" M412.55999755859375,1.8200000524520874 C442.9599914550781,-8 458.1600036621094,23.790000915527344 452.5,51.43000030517578 C446.8399963378906,79.33000183105469 419.9800109863281,103.36000061035156 399.4800109863281,119.88999938964844 C378.9800109863281,136.4199981689453 364.4800109863281,145.47999572753906 363.7699890136719,184.22999572753906 C362.7099914550781,222.72999572753906 375.0899963378906,290.92999267578125 357.05999755859375,304.6199951171875 C339.0299987792969,318.30999755859375 290.6000061035156,277.5 240.39999389648438,258.3800048828125 C190.1999969482422,239.52000427246094 138.58999633789062,242.36000061035156 89.80999755859375,228.41000366210938 C41.029998779296875,214.4600067138672 -4.579999923706055,183.4499969482422 0.3700000047683716,152.19000244140625 C5.320000171661377,121.19000244140625 61.18000030517578,89.91999816894531 96.87999725341797,60.209999084472656 C132.94000244140625,30.760000228881836 149.19000244140625,2.859999895095825 178.17999267578125,12.15999984741211 C207.1699981689453,21.459999084472656 248.88999938964844,68.2300033569336 292.3699951171875,65.9000015258789 C336.20001220703125,63.31999969482422 381.80999755859375,11.640000343322754 412.55999755859375,1.8200000524520874 C412.55999755859375,1.8200000524520874 412.55999755859375,1.8200000524520874 412.55999755859375,1.8200000524520874z"></path></g><g transform="matrix(0.9999824166297913,-0.005934084765613079,0.005934084765613079,0.9999824166297913,277.4412536621094,220.8373260498047)" opacity="0.29084815789476365" style="display: block;"><path fill="rgb(255,227,204)" fill-opacity="1" d=" M325.79998779296875,69.27999877929688 C342.5,103.0199966430664 333.1499938964844,142.38999938964844 338.489990234375,170.77000427246094 C343.8399963378906,199.39999389648438 364.2200012207031,217.0500030517578 350.8599853515625,224.97000122070312 C337.5,233.14999389648438 290.3800048828125,231.6199951171875 268.3299865722656,241.0800018310547 C245.9499969482422,250.27999877929688 248.9600067138672,270.4800109863281 235.60000610351562,294.25 C222.24000549316406,318.2799987792969 192.49000549316406,345.8900146484375 166.77000427246094,347.67999267578125 C140.7100067138672,349.4700012207031 118.66000366210938,325.17999267578125 79.91000366210938,304.4700012207031 C41.4900016784668,283.510009765625 -13.630000114440918,266.1300048828125 3.069999933242798,250.52999877929688 C19.770000457763672,234.94000244140625 107.63999938964844,221.13999938964844 129.69000244140625,184.07000732421875 C151.74000549316406,147 107.63999938964844,86.91999816894531 112.31999969482422,48.83000183105469 C116.66000366210938,11 170.11000061035156,-4.860000133514404 218.22000122070312,1.2799999713897705 C266,7.420000076293945 309.1000061035156,35.540000915527344 325.79998779296875,69.27999877929688 C325.79998779296875,69.27999877929688 325.79998779296875,69.27999877929688 325.79998779296875,69.27999877929688z"></path></g></g></g></g><g mask="url(#__lottie_element_3_1)" style="display: block;"><g clip-path="url(#__lottie_element_7)" transform="matrix(0.8660253882408142,-0.5,0.5,0.8660253882408142,118.88528442382812,430.93597412109375)" opacity="1"><g mask="url(#__lottie_element_28_1)" style="display: block;"><g transform="matrix(0.7601792216300964,0.6497134566307068,-0.6497134566307068,0.7601792216300964,276.8445739746094,123.8768310546875)" opacity="1"><path fill="rgb(175,209,235)" fill-opacity="1" d=" M307.9599914550781,23.860000610351562 C329.7799987792969,22.079999923706055 336.30999755859375,62.20000076293945 335.739990234375,95.4800033569336 C334.8900146484375,128.75999450683594 327.2300109863281,155.2100067138672 333.4700012207031,191.1699981689453 C339.7099914550781,227.4199981689453 360.1099853515625,273.19000244140625 351.32000732421875,303.79998779296875 C342.5400085449219,334.4100036621094 304.8399963378906,349.8599853515625 263.75,370.07000732421875 C222.66000366210938,390.2799987792969 178.1699981689453,415.54998779296875 138.49000549316406,409.8999938964844 C98.80999755859375,404.25 63.66999816894531,367.70001220703125 35.33000183105469,327.8800048828125 C6.710000038146973,288.3599853515625 -15.109999656677246,245.55999755859375 13.229999542236328,217.02999877929688 C41.290000915527344,188.1999969482422 120.06999969482422,173.94000244140625 137.63999938964844,128.77000427246094 C155.2100067138672,83.9000015258789 111.8499984741211,8.40999984741211 113.83000183105469,0.6800000071525574 C116.0999984741211,-7.050000190734863 163.42999267578125,52.9900016784668 205.94000244140625,61.310001373291016 C248.4499969482422,69.62999725341797 285.8500061035156,25.639999389648438 307.9599914550781,23.860000610351562 C307.9599914550781,23.860000610351562 307.9599914550781,23.860000610351562 307.9599914550781,23.860000610351562z"></path></g></g><g mask="url(#__lottie_element_22_1)" style="display: block;"><g transform="matrix(1,0,0,1,332.0899963378906,108.22999572753906)" opacity="1"><path fill="rgb(158,210,231)" fill-opacity="1" d=" M316.8699951171875,0.6899999976158142 C357.3399963378906,5.360000133514404 386.54998779296875,36.91999816894531 376.80999755859375,67.80999755859375 C367.07000732421875,98.69999694824219 318.3800048828125,128.92999267578125 309.55999755859375,162.25999450683594 C300.42999267578125,195.60000610351562 331.4700012207031,232.0399932861328 317.4700012207031,235.14999389648438 C303.4700012207031,238.47999572753906 244.44000244140625,208.25999450683594 210.97000122070312,193.82000732421875 C177.1999969482422,179.14999389648438 168.97999572753906,180.25999450683594 166.85000610351562,175.58999633789062 C165.02000427246094,170.6999969482422 168.97999572753906,160.25999450683594 134.2899932861328,158.6999969482422 C99.91000366210938,157.3699951171875 26.889999389648438,164.7100067138672 6.5,157.82000732421875 C-13.890000343322754,150.7100067138672 18.059999465942383,129.3699951171875 42.400001525878906,111.37000274658203 C66.44000244140625,93.37000274658203 82.87000274658203,78.91999816894531 103.55999755859375,67.58999633789062 C124.25,56.2599983215332 148.89999389648438,48.029998779296875 187.24000549316406,32.91999816894531 C225.27000427246094,17.809999465942383 276.70001220703125,-4.199999809265137 316.8699951171875,0.6899999976158142 C316.8699951171875,0.6899999976158142 316.8699951171875,0.6899999976158142 316.8699951171875,0.6899999976158142z"></path></g></g><g mask="url(#__lottie_element_16_1)" style="display: block;"><g transform="matrix(1,0,0,1,-22.449996948242188,78.50999450683594)" opacity="1"><path fill="rgb(244,239,224)" fill-opacity="1" d=" M412.55999755859375,1.8200000524520874 C442.9599914550781,-8 458.1600036621094,23.790000915527344 452.5,51.43000030517578 C446.8399963378906,79.33000183105469 419.9800109863281,103.36000061035156 399.4800109863281,119.88999938964844 C378.9800109863281,136.4199981689453 364.4800109863281,145.47999572753906 363.7699890136719,184.22999572753906 C362.7099914550781,222.72999572753906 375.0899963378906,290.92999267578125 357.05999755859375,304.6199951171875 C339.0299987792969,318.30999755859375 290.6000061035156,277.5 240.39999389648438,258.3800048828125 C190.1999969482422,239.52000427246094 138.58999633789062,242.36000061035156 89.80999755859375,228.41000366210938 C41.029998779296875,214.4600067138672 -4.579999923706055,183.4499969482422 0.3700000047683716,152.19000244140625 C5.320000171661377,121.19000244140625 61.18000030517578,89.91999816894531 96.87999725341797,60.209999084472656 C132.94000244140625,30.760000228881836 149.19000244140625,2.859999895095825 178.17999267578125,12.15999984741211 C207.1699981689453,21.459999084472656 248.88999938964844,68.2300033569336 292.3699951171875,65.9000015258789 C336.20001220703125,63.31999969482422 381.80999755859375,11.640000343322754 412.55999755859375,1.8200000524520874 C412.55999755859375,1.8200000524520874 412.55999755859375,1.8200000524520874 412.55999755859375,1.8200000524520874z"></path></g></g><g mask="url(#__lottie_element_10_1)" style="display: block;"><g transform="matrix(0.9999824166297913,-0.005934084765613079,0.005934084765613079,0.9999824166297913,277.4412536621094,220.8373260498047)" opacity="1"><path fill="rgb(255,227,204)" fill-opacity="1" d=" M325.79998779296875,69.27999877929688 C342.5,103.0199966430664 333.1499938964844,142.38999938964844 338.489990234375,170.77000427246094 C343.8399963378906,199.39999389648438 364.2200012207031,217.0500030517578 350.8599853515625,224.97000122070312 C337.5,233.14999389648438 290.3800048828125,231.6199951171875 268.3299865722656,241.0800018310547 C245.9499969482422,250.27999877929688 248.9600067138672,270.4800109863281 235.60000610351562,294.25 C222.24000549316406,318.2799987792969 192.49000549316406,345.8900146484375 166.77000427246094,347.67999267578125 C140.7100067138672,349.4700012207031 118.66000366210938,325.17999267578125 79.91000366210938,304.4700012207031 C41.4900016784668,283.510009765625 -13.630000114440918,266.1300048828125 3.069999933242798,250.52999877929688 C19.770000457763672,234.94000244140625 107.63999938964844,221.13999938964844 129.69000244140625,184.07000732421875 C151.74000549316406,147 107.63999938964844,86.91999816894531 112.31999969482422,48.83000183105469 C116.66000366210938,11 170.11000061035156,-4.860000133514404 218.22000122070312,1.2799999713897705 C266,7.420000076293945 309.1000061035156,35.540000915527344 325.79998779296875,69.27999877929688 C325.79998779296875,69.27999877929688 325.79998779296875,69.27999877929688 325.79998779296875,69.27999877929688z"></path></g></g></g></g></g></svg>